<?xml version="1.0" encoding="iso-8859-1"?>
<!-- Uploaded to: SVG Repo, www.svgrepo.com, Generator: SVG Repo Mixer Tools -->
<svg fill="#000000" version="1.1" id="Layer_1" xmlns="http://www.w3.org/2000/svg" xmlns:xlink="http://www.w3.org/1999/xlink" 
	 viewBox="0 0 512 512" xml:space="preserve">
<g>
	<g>
		<path d="M446.021,0H47.505v512h398.516c10.186,0,18.474-8.288,18.474-18.474V18.474C464.495,8.288,456.207,0,446.021,0z
			 M100.289,496.165H63.34V15.835h36.948V496.165z M448.66,493.526c0,1.43-1.209,2.639-2.639,2.639H116.124V15.835h329.897
			c1.43,0,2.639,1.209,2.639,2.639V493.526z"/>
	</g>
</g>
<g>
	<g>
		<rect x="372.124" y="401.155" width="52.784" height="15.835"/>
	</g>
</g>
<g>
	<g>
		<rect x="319.34" y="443.381" width="105.567" height="15.835"/>
	</g>
</g>
<g>
	<g>
		<path d="M366.571,93.053c-22.297-22.4-51.991-34.828-83.61-34.991h-0.569c-65.486,0-118.763,53.277-118.763,118.763
			c0,31.616,12.282,61.366,34.584,83.772c22.297,22.4,51.991,34.828,83.651,34.991h0.528c65.486,0,118.763-53.276,118.763-118.763
			C401.155,145.208,388.873,115.459,366.571,93.053z M282.392,279.753h-0.487c-56.487-0.292-102.441-46.466-102.441-102.928
			c0-56.755,46.173-102.928,102.928-102.928h0.505c56.477,0.304,102.423,46.473,102.423,102.928
			C385.32,233.58,339.147,279.753,282.392,279.753z"/>
	</g>
</g>
<g>
	<g>
		<path d="M321.979,150.433v-15.835c0-10.186-8.288-18.474-18.474-18.474h-13.196V92.371h-15.835v23.753h-13.196
			c-10.186,0-18.474,8.288-18.474,18.474v31.67c0,10.186,8.288,18.474,18.474,18.474h42.227c1.43,0,2.639,1.209,2.639,2.639v31.67
			c0,1.43-1.209,2.639-2.639,2.639h-42.227c-1.43,0-2.639-1.209-2.639-2.639v-15.835h-15.835v15.835
			c0,10.186,8.288,18.474,18.474,18.474h13.196v23.753h15.835v-23.753h13.196c10.186,0,18.474-8.288,18.474-18.474v-31.67
			c0-10.186-8.288-18.474-18.474-18.474h-42.227c-1.43,0-2.639-1.209-2.639-2.639v-31.67c0-1.43,1.209-2.639,2.639-2.639h42.227
			c1.43,0,2.639,1.209,2.639,2.639v15.835H321.979z"/>
	</g>
</g>
<g>
	<g>
		<path d="M142.515,401.155v58.062h68.619v-58.062H142.515z M195.299,443.381H158.35V416.99h36.948V443.381z"/>
	</g>
</g>
</svg>