<?xml version="1.0" encoding="iso-8859-1"?>
<!-- Uploaded to: SVG Repo, www.svgrepo.com, Generator: SVG Repo Mixer Tools -->
<svg fill="#000000" height="800px" width="800px" version="1.1" id="Layer_1" xmlns="http://www.w3.org/2000/svg" xmlns:xlink="http://www.w3.org/1999/xlink" 
	 viewBox="0 0 480 480" xml:space="preserve">
<g>
	<g>
		<path d="M62.542,40h-16V24c0-4.416-3.576-8-8-8s-8,3.584-8,8v16h-16c-4.424,0-8,3.584-8,8s3.576,8,8,8h16v16c0,4.416,3.576,8,8,8
			s8-3.584,8-8V56h16c4.424,0,8-3.584,8-8S66.966,40,62.542,40z"/>
	</g>
</g>
<g>
	<g>
		<path d="M294.35,201.352l-141.12-49.96c-1.736-0.608-3.608-0.608-5.344,0L6.782,201.344c-3.28,1.168-5.44,4.328-5.32,7.808
			c0.088,2.728,2.432,67.52,21.216,133.48C48.278,432.496,92.494,480,150.566,480c58.744,0,103.168-47.504,128.496-137.384
			c18.584-65.976,20.536-130.784,20.616-133.504C299.774,205.64,297.614,202.512,294.35,201.352z M150.566,464
			C37.966,464,20.054,252.504,17.75,214.44l132.816-47.024l132.856,47.032C281.366,252.408,264.694,464,150.566,464z"/>
	</g>
</g>
<g>
	<g>
		<path d="M262.358,225.744l-108.912-42.088c-1.856-0.72-3.904-0.72-5.768,0L38.774,225.744c-3.168,1.224-5.216,4.32-5.112,7.72
			c0.288,8.896,8.248,217.92,116.904,217.92c109.928,0,116.68-209.072,116.912-217.968
			C267.566,230.032,265.518,226.96,262.358,225.744z M150.566,435.384c-84.376,0-98.624-164.064-100.616-196.808l100.616-38.88
			l100.664,38.896C249.43,271.248,236.102,435.384,150.566,435.384z"/>
	</g>
</g>
<g>
	<g>
		<path d="M150.102,255.576c-34.016,0-61.688,27.672-61.688,61.68s27.672,61.68,61.688,61.68c34.008,0,61.68-27.672,61.68-61.68
			S184.11,255.576,150.102,255.576z M150.102,362.928c-25.192,0-45.688-20.496-45.688-45.68c0-25.184,20.496-45.68,45.688-45.68
			c25.184,0,45.68,20.496,45.68,45.68C195.782,342.432,175.286,362.928,150.102,362.928z"/>
	</g>
</g>
<g>
	<g>
		<path d="M177.854,298.328c-3.328-2.864-8.384-2.608-11.28,0.744l-19.744,22.936l-7.832-8.992
			c-2.904-3.328-7.976-3.688-11.288-0.776c-3.328,2.904-3.664,8.416-0.76,11.744l13.904,16.36c1.52,1.744,3.72,3.656,6.024,3.656
			c0.008,0,0.024,0,0.032,0c2.328,0,4.52-1.944,6.04-3.704l25.76-30.456C181.582,306.488,181.206,301.208,177.854,298.328z"/>
	</g>
</g>
<g>
	<g>
		<circle cx="150.134" cy="229.752" r="7.592"/>
	</g>
</g>
<g>
	<g>
		<circle cx="150.134" cy="405.752" r="7.592"/>
	</g>
</g>
<g>
	<g>
		<path d="M454.542,0h-200c-13.232,0-24,10.768-24,24v128c0,4.416,3.576,8,8,8s8-3.584,8-8V24c0-4.408,3.584-8,8-8h200
			c4.416,0,8,3.592,8,8v400c0,4.408-3.584,8-8,8h-192c-4.424,0-8,3.584-8,8c0,4.416,3.576,8,8,8h192c13.232,0,24-10.768,24-24V24
			C478.542,10.768,467.774,0,454.542,0z"/>
	</g>
</g>
<g>
	<g>
		<circle cx="353.902" cy="92.624" r="12.624"/>
	</g>
</g>
<g>
	<g>
		<circle cx="353.902" cy="355.36" r="12.624"/>
	</g>
</g>
<g>
	<g>
		<path d="M438.542,48h-8c-4.416,0-8-3.592-8-8c0-4.416-3.576-8-8-8h-120c-4.424,0-8,3.584-8,8c0,4.408-3.584,8-8,8h-8
			c-4.424,0-8,3.584-8,8v88c0,4.416,3.576,8,8,8s8-3.584,8-8V64c10.432,0,19.328-6.688,22.632-16H407.91
			c3.304,9.312,12.2,16,22.632,16v80c0,4.416,3.576,8,8,8s8-3.584,8-8V56C446.542,51.584,442.966,48,438.542,48z"/>
	</g>
</g>
<g>
	<g>
		<path d="M438.542,296c-4.424,0-8,3.584-8,8v80c-10.432,0-19.328,6.688-22.632,16H294.542c-4.424,0-8,3.584-8,8
			c0,4.416,3.576,8,8,8h120c4.424,0,8-3.584,8-8c0-4.408,3.584-8,8-8h8c4.424,0,8-3.584,8-8v-88
			C446.542,299.584,442.966,296,438.542,296z"/>
	</g>
</g>
<g>
	<g>
		<path d="M358.542,160c-16.32,0-32.304,5.608-45.008,15.8c-3.448,2.768-4,7.8-1.232,11.248s7.8,4.008,11.248,1.24
			c10.016-8.04,22.12-12.288,34.992-12.288c30.872,0,56,25.12,56,56s-25.128,56-56,56c-12.872,0-24.976-4.248-34.992-12.28
			c-3.456-2.76-8.488-2.208-11.248,1.24c-2.76,3.448-2.208,8.48,1.232,11.248C326.238,298.392,342.222,304,358.542,304
			c39.704,0,72-32.304,72-72S398.246,160,358.542,160z"/>
	</g>
</g>
</svg>